<?xml version="1.0" encoding="utf-8"?>
<!-- Generator: Adobe Illustrator 18.0.0, SVG Export Plug-In . SVG Version: 6.00 Build 0)  -->
<!DOCTYPE svg PUBLIC "-//W3C//DTD SVG 1.1//EN" "http://www.w3.org/Graphics/SVG/1.1/DTD/svg11.dtd">
<svg version="1.1" id="Layer_1" xmlns="http://www.w3.org/2000/svg" xmlns:xlink="http://www.w3.org/1999/xlink" x="0px" y="0px"
	 viewBox="0 0 471.1 103" enable-background="new 0 0 471.1 103" xml:space="preserve">
<g>
	<path fill="#FFFFFF" d="M13,88.4v-2.4c2.7,1,6.5,1.4,10.1,1.4c10.3,0,15.2-4.6,15.2-13.9V16.6h2.8v56.8c0,10.3-5.4,16.8-17.9,16.8
		C19.3,90.2,15.6,89.4,13,88.4z"/>
	<path fill="#FFFFFF" d="M55.2,76.6c0-9,5.2-13.9,16-15.1l16.8-1.8v-8.3c0-9.5-4.6-12.9-14.1-12.9c-5.1,0-9.8,1.1-13.9,2.4v-2.2
		c4.4-1.8,9.3-2.7,14.8-2.7c10.2,0,16.2,4.2,16.2,14.8v39h-2.7L88,85.1h-0.1c-2.4,2.3-8,5.5-16.3,5.5C61.7,90.6,55.2,85.3,55.2,76.6
		z M87.9,82.7V62l-16.1,1.9c-9.5,0.9-13.8,4.9-13.8,12.5c0,7.3,5.2,12,14,12C79.5,88.4,84.8,85.6,87.9,82.7z"/>
	<path fill="#FFFFFF" d="M108,11.8h2.9v77.7H108V11.8z"/>
	<path fill="#FFFFFF" d="M124.4,76.6c0-9,5.2-13.9,16-15.1l16.8-1.8v-8.3c0-9.5-4.6-12.9-14.1-12.9c-5.1,0-9.8,1.1-13.9,2.4v-2.2
		c4.4-1.8,9.3-2.7,14.8-2.7c10.2,0,16.2,4.2,16.2,14.8v39h-2.7l-0.2-4.8h-0.1c-2.4,2.3-8,5.5-16.3,5.5
		C131,90.6,124.4,85.3,124.4,76.6z M157.2,82.7V62l-16.1,1.9c-9.5,0.9-13.8,4.9-13.8,12.5c0,7.3,5.2,12,14,12
		C148.8,88.4,154.1,85.6,157.2,82.7z"/>
	<path fill="#FFFFFF" d="M177.3,11.8h2.9v77.7h-2.9V11.8z"/>
	<path fill="#FFFFFF" d="M249,16.6h2.9l27.7,73h-3l-9.5-25.2h-33.4L224,89.6h-2.8L249,16.6z M234.6,61.7h31.5l-15.5-41.2h-0.2
		L234.6,61.7z"/>
	<path fill="#FFFFFF" d="M287.4,87.5l34.5-47.9v-0.1h-33.1v-2.6h36.4v2.3l-34.5,47.8v0.2h34.4v2.6h-37.7V87.5z"/>
	<path fill="#FFFFFF" d="M338.1,20.5h2.9v4.1h-2.9V20.5z M338.2,36.8h2.8v52.8h-2.8V36.8z"/>
	<path fill="#FFFFFF" d="M358.9,36.9h2.7v5.2h0.2c6.5-4,12.9-6,18.8-6c6.2,0,10.5,2.1,12.8,6.3h0.2c7.5-4.8,14-6.3,19.8-6.3
		c8.7,0,14.5,3.9,14.5,13.9v39.8h-2.7V50.4c0-8.8-4.8-11.9-12.7-11.9c-5.3,0-11.4,1.7-18.5,6c0.4,1.6,0.8,3.2,0.8,5.4v39.8h-2.9
		V50.4c0-8.8-4.1-11.9-11.9-11.9c-6,0-11.9,1.9-18.3,6.1v45.2h-2.8V36.9z"/>
	<path fill="#FFFFFF" d="M445.2,20.5h2.9v4.1h-2.9V20.5z M445.3,36.8h2.8v52.8h-2.8V36.8z"/>
</g>
</svg>
