<?xml version="1.0" encoding="UTF-8"?>
<svg width="696px" height="133px" viewBox="0 0 696 133" version="1.1" xmlns="http://www.w3.org/2000/svg" xmlns:xlink="http://www.w3.org/1999/xlink">
    <!-- Generator: Sketch 48.2 (47327) - http://www.bohemiancoding.com/sketch -->
    <title>جلال عظیمی</title>
    <desc>Created with Sketch.</desc>
    <defs></defs>
    <g id="Artboard" stroke="none" stroke-width="1" fill="none" fill-rule="evenodd" transform="translate(-340.000000, -451.000000)">
        <path d="M977.195312,567.195312 L982.1875,562.203125 C983.546882,560.843743 984.988274,560.117188 986.511719,560.023438 C988.035164,559.929687 989.453118,560.539056 990.765625,561.851562 L996.25,567.265625 C997.562507,568.625007 998.195313,570.078117 998.148437,571.625 C998.101562,573.171883 997.398444,574.64843 996.039062,576.054688 L991.046875,581.046875 C989.687493,582.406257 988.246101,583.085938 986.722656,583.085938 C985.199211,583.085938 983.757819,582.429694 982.398437,581.117188 L976.984375,575.632812 C975.671868,574.320306 975.039062,572.925789 975.085937,571.449219 C975.132813,569.972649 975.835931,568.554694 977.195312,567.195312 Z M872.078125,526.132812 L872.078125,451.742188 L889.65625,451.742188 L889.65625,526.132812 L872.078125,526.132812 Z M953.067922,529.4375 L972.414062,529.4375 C981.507858,529.4375 990.109334,527.375021 998.21875,523.25 L1010.17188,517.203125 C1011.29688,516.640622 1012.30468,516.125002 1013.19531,515.65625 L1012.14062,515.09375 L996.671875,507.007812 C993.249983,505.273429 990.109389,504.40625 987.25,504.40625 C984.29686,504.40625 981.507826,505.390615 978.882812,507.359375 L967.914062,515.65625 L965.875,517.203125 L964.117188,515.304688 L955.820312,505.953125 L953.851562,503.773438 L956.242188,501.875 L966.4375,493.859375 C973.328159,488.515598 980.054655,485.84375 986.617188,485.84375 C992.10159,485.84375 997.281226,487.1328 1002.15625,489.710938 L1023.17969,500.75 C1031.71098,505.250023 1035.97656,510.24216 1035.97656,515.726562 C1035.97656,518.023449 1035.23829,520.238271 1033.76172,522.371094 C1032.28515,524.503917 1030.31642,526.460929 1027.85547,528.242188 C1025.39452,530.023446 1022.31252,531.851553 1018.60938,533.726562 L1007.07812,539.492188 C1001.40622,542.304702 995.687529,544.425774 989.921875,545.855469 C984.156221,547.285163 978.367217,548 972.554688,548 L950.96875,548 L949.84375,548 C945.484353,548 941.488299,547.296882 937.855469,545.890625 C934.222638,544.484368 931.023451,542.398451 928.257812,539.632812 C922.914036,545.210965 916.28129,548 908.359375,548 L872.007812,548 L872.007812,529.4375 L908.148438,529.4375 C911.804706,529.4375 914.640615,528.101576 916.65625,525.429688 C918.62501,522.804674 919.609375,518.46878 919.609375,512.421875 L919.609375,451.742188 L937.1875,451.742188 L937.1875,512.492188 C937.1875,518.445342 938.21874,522.710925 940.28125,525.289062 C942.34376,527.8672 945.578103,529.15625 949.984375,529.15625 L951.601562,529.15625 C952.134102,529.15625 952.622887,529.25 953.067922,529.4375 Z M788.125,537.875 C788.125,545.703164 790.117168,551.468731 794.101562,555.171875 C798.039082,558.921894 804.343707,560.796875 813.015625,560.796875 L816.742188,560.796875 C824.570352,560.796875 830.289044,559.03908 833.898438,555.523438 C837.460955,552.007795 839.242188,546.500037 839.242188,539 L839.242188,451.882812 L856.75,451.882812 L856.75,454.695312 L856.679688,539.28125 C856.679688,552.406316 853.234409,562.367154 846.34375,569.164062 C839.499966,576.007847 829.468816,579.429688 816.25,579.429688 L813.015625,579.429688 C798.953055,579.429688 788.265662,575.914098 780.953125,568.882812 C773.593713,561.851527 769.914062,551.53913 769.914062,537.945312 L769.914062,511.015625 L788.125,511.015625 L788.125,537.875 Z M607.984375,460.742188 L612.976562,455.75 C614.335944,454.390618 615.777336,453.664063 617.300781,453.570312 C618.824226,453.476562 620.242181,454.085931 621.554687,455.398438 L627.039062,460.8125 C628.351569,462.171882 628.984375,463.624992 628.9375,465.171875 C628.890625,466.718758 628.187507,468.195305 626.828125,469.601562 L621.835937,474.59375 C620.476556,475.953132 619.035164,476.632812 617.511719,476.632812 C615.988274,476.632812 614.546882,475.976569 613.1875,474.664062 L607.773437,469.179688 C606.460931,467.867181 605.828125,466.472664 605.875,464.996094 C605.921875,463.519524 606.624993,462.101569 607.984375,460.742188 Z M615.4375,506.585938 C611.874982,506.585938 608.183613,508.4492 604.363281,512.175781 C600.54295,515.902362 596.710957,521.632774 592.867188,529.367188 L613.609375,529.367188 C619.890656,529.367188 624.085927,528.453134 626.195312,526.625 C626.945316,525.968747 627.496092,525.183598 627.847656,524.269531 C628.199221,523.355464 628.375,522.218757 628.375,520.859375 L628.375,520.015625 C628.375,519.734374 628.363281,519.476564 628.339844,519.242188 L628.269531,518.539062 C628.246094,518.304686 628.222656,518.082032 628.199219,517.871094 C628.175781,517.660155 628.152344,517.460938 628.128906,517.273438 L628.058594,516.710938 C628.035156,516.523437 628,516.359376 627.953125,516.21875 C627.437497,513.968739 626.652349,512.140632 625.597656,510.734375 C624.542963,509.328118 623.195321,508.28516 621.554688,507.605469 C619.914054,506.925778 617.875012,506.585938 615.4375,506.585938 Z M533.664062,567.335938 L538.65625,562.34375 C540.062507,560.937493 541.468743,560.210938 542.875,560.164062 C543.578129,560.117187 544.281246,560.257811 544.984375,560.585938 C545.687504,560.914064 546.343747,561.382809 546.953125,561.992188 L552.4375,567.40625 C553.703131,568.718757 554.3125,570.124992 554.265625,571.625 C554.21875,573.125008 553.539069,574.554681 552.226562,575.914062 L547.234375,580.90625 C546.906248,581.187501 546.601564,581.445311 546.320312,581.679688 C546.039061,581.914064 545.757814,582.101562 545.476562,582.242188 L544.492188,582.664062 C543.507808,583.039064 542.523442,583.062502 541.539062,582.734375 C540.648433,582.406248 539.757817,581.820317 538.867188,580.976562 L533.453125,575.492188 C532.187494,574.226556 531.589843,572.878913 531.660156,571.449219 C531.730469,570.019524 532.398431,568.648444 533.664062,567.335938 Z M510.53125,567.40625 L515.59375,562.34375 C516.906257,561.031243 518.289055,560.328125 519.742188,560.234375 C521.19532,560.140625 522.578118,560.726556 523.890625,561.992188 L529.375,567.40625 C530.640631,568.718757 531.25,570.124992 531.203125,571.625 C531.15625,573.125008 530.476569,574.554681 529.164062,575.914062 L524.171875,580.90625 C522.859368,582.218757 521.464851,582.875 519.988281,582.875 C518.511711,582.875 517.117194,582.242194 515.804688,580.976562 L510.390625,575.492188 C509.124994,574.226556 508.527343,572.878913 508.597656,571.449219 C508.667969,570.019524 509.312494,568.671881 510.53125,567.40625 Z M476.078125,507.007812 C472.937484,507.007812 470.640632,507.898429 469.1875,509.679688 C467.734368,511.460946 466.984375,514.507791 466.9375,518.820312 C466.84375,523.179709 467.546868,526.273428 469.046875,528.101562 C470.546883,529.929697 472.984358,530.84375 476.359375,530.84375 C479.171889,530.84375 481.246087,529.953134 482.582031,528.171875 C483.917975,526.390616 484.585938,523.27346 484.585938,518.820312 C484.585938,517.320305 484.503907,515.984381 484.339844,514.8125 C484.17578,513.640619 483.929689,512.621098 483.601563,511.753906 C483.273436,510.886714 482.886721,510.148441 482.441406,509.539062 C481.996092,508.929684 481.445316,508.437502 480.789063,508.0625 C480.132809,507.687498 479.429691,507.41797 478.679688,507.253906 C477.929684,507.089843 477.062505,507.007812 476.078125,507.007812 Z M509.195312,529.4375 L521.570312,529.4375 C526.914089,529.4375 530.734364,528.464853 533.03125,526.519531 C535.328136,524.574209 536.476562,521.492209 536.476562,517.273438 L536.476562,496.882812 L555.039062,496.882812 L555.039062,517.273438 C555.039062,521.585959 556.035146,524.691397 558.027344,526.589844 C560.019541,528.488291 563.312477,529.4375 567.90625,529.4375 L568.75,529.4375 L572.898438,529.4375 C574.023443,527.046863 576.249983,522.710969 579.578125,516.429688 L579.578125,451.953125 L597.15625,451.953125 L597.15625,494.703125 C603.25003,490.109352 609.578092,487.8125 616.140625,487.8125 C626.828178,487.8125 634.937472,491.515588 640.46875,498.921875 C644.640646,504.500028 646.773437,511.554645 646.867188,520.085938 C646.914063,520.695316 646.914063,521.304684 646.867188,521.914062 C646.820312,522.570316 646.773438,523.179685 646.726562,523.742188 C646.679687,524.351566 646.609375,524.91406 646.515625,525.429688 C648.015633,526.835945 649.539055,527.843747 651.085938,528.453125 C652.679695,529.109378 654.367179,529.4375 656.148438,529.4375 L656.921875,529.4375 L668.875,529.4375 C664.749979,524.234349 662.6875,518.39847 662.6875,511.929688 C662.734375,503.539021 665.804657,496.203156 671.898438,489.921875 C677.617216,484.109346 685.023392,481.203125 694.117188,481.203125 C704.242238,481.203125 712.445281,485.093711 718.726562,492.875 L719.921875,494.351562 L719.007812,495.96875 L713.804688,505.53125 L712.046875,508.835938 L709.375,506.234375 C707.218739,504.124989 704.910169,502.566411 702.449219,501.558594 C699.988269,500.550776 697.328139,500.046875 694.46875,500.046875 C689.828102,500.046875 686.2422,501.734358 683.710938,505.109375 C682.257805,507.03126 681.53125,509.281237 681.53125,511.859375 C681.53125,512.89063 681.648436,513.874995 681.882812,514.8125 C682.117189,515.750005 682.480466,516.687495 682.972656,517.625 C683.464846,518.562505 684.12109,519.476558 684.941406,520.367188 C685.761723,521.257817 686.710932,522.148433 687.789062,523.039062 C691.210955,525.804701 693.812491,527.210937 695.59375,527.257812 C695.781251,527.257812 696.21484,527.199219 696.894531,527.082031 C697.574222,526.964843 698.511713,526.789064 699.707031,526.554688 C700.90235,526.320311 702.179681,526.039064 703.539062,525.710938 L718.65625,522.125 L722.101562,521.28125 L722.101562,539.914062 L720.0625,540.476562 C703.328041,545.492213 688.609439,548 675.90625,548 L658.978452,548 C658.59615,548.140625 658.191875,548.210938 657.765625,548.210938 L655.726562,548.210938 C653.945304,548.210938 652.234383,548.070314 650.59375,547.789062 C648.953117,547.460936 647.359383,547.015628 645.8125,546.453125 C644.265617,545.843747 642.777351,545.117192 641.347656,544.273438 C639.917962,543.429683 638.570319,542.445318 637.304688,541.320312 C631.398408,545.77346 623.031304,548 612.203125,548 L568.75,548 L567.976562,548 C564.882797,548 562.011732,547.671878 559.363281,547.015625 C556.714831,546.359372 554.277355,545.375007 552.050781,544.0625 C549.824208,542.749993 547.843759,541.109385 546.109375,539.140625 C540.15622,545.046905 531.859428,548 521.21875,548 L509.195312,548 L507.929688,548 C505.023423,548 502.433605,547.648441 500.160156,546.945312 C497.886707,546.242184 495.953133,545.140633 494.359375,543.640625 C490.328105,547.203143 484.257853,548.984375 476.148438,548.984375 C467.476519,548.9375 461.12502,547.13283 457.09375,543.570312 C453.578107,546.523452 448.304723,548 441.273438,548 L437.546875,548 L433.117188,548 L433.117188,550.601562 C432.976562,560.351611 429.074257,567.640601 421.410156,572.46875 C413.746055,577.296899 402.789134,579.710938 388.539062,579.710938 L385.09375,579.710938 C365.03115,579.710938 351.718783,573.078191 345.15625,559.8125 C342.20311,553.81247 340.703125,546.570355 340.65625,538.085938 L340.65625,511.15625 L343.46875,511.15625 L356.054688,511.226562 L358.867188,511.226562 L358.867188,538.015625 C358.867188,545.93754 360.953104,551.773419 365.125,555.523438 C369.296896,559.273456 375.882767,561.148438 384.882812,561.148438 L388.820312,561.148438 C406.35165,561.148438 415.117188,557.468787 415.117188,550.109375 L415.117188,548 L400.210938,548 C396.367168,548 393.69532,545.187528 392.195312,539.5625 C392.054687,539.046872 391.949219,538.613283 391.878906,538.261719 L391.597656,536.855469 C391.480468,536.269528 391.410156,535.753908 391.386719,535.308594 C391.363281,534.863279 391.351562,534.371096 391.351562,533.832031 C391.351562,533.292966 391.433593,532.812502 391.597656,532.390625 C391.76172,531.968748 391.960936,531.570314 392.195312,531.195312 C392.429689,530.820311 392.75781,530.492189 393.179688,530.210938 C393.601565,529.929686 394.093747,529.695313 394.65625,529.507812 L395.007812,529.4375 L437.546875,529.4375 L441.132812,529.4375 C446.101587,529.4375 448.585938,528.546884 448.585938,526.765625 C448.585938,516.124947 449.523428,508.531273 451.398438,503.984375 C453.507823,498.92185 456.636698,495.089857 460.785156,492.488281 C464.933614,489.886706 469.937471,488.585938 475.796875,488.585938 C478.281262,488.585938 480.61327,488.808592 482.792969,489.253906 C484.972667,489.699221 486.976553,490.355464 488.804688,491.222656 C490.632822,492.089848 492.27343,493.179681 493.726562,494.492188 C495.179695,495.804694 496.445307,497.339835 497.523438,499.097656 C498.601568,500.855478 499.468747,502.789052 500.125,504.898438 C501.296881,508.789082 501.999999,515.914011 502.234375,526.273438 C502.234375,526.83594 502.304687,527.292967 502.445312,527.644531 C502.585938,527.996096 502.832029,528.312499 503.183594,528.59375 C503.535158,528.875001 504.062496,529.085937 504.765625,529.226562 C505.468754,529.367188 506.382807,529.4375 507.507812,529.4375 L509.195312,529.4375 Z" id="جلال-عظیمی" fill="#000000"></path>
    </g>
</svg>